<?xml version="1.0" encoding="utf-8"?>
<!-- Generator: Adobe Illustrator 27.0.0, SVG Export Plug-In . SVG Version: 6.00 Build 0)  -->
<svg version="1.1" xmlns="http://www.w3.org/2000/svg" xmlns:xlink="http://www.w3.org/1999/xlink" x="0px" y="0px"
	 viewBox="0 0 800 500" style="enable-background:new 0 0 800 500;" xml:space="preserve">
<style type="text/css">
	.st0{clip-path:url(#SVGID_00000121255683738439956660000016552191789768913805_);}
	.st1{fill:#EBF2F8;}
	.st2{fill:#01A1E5;}
	.st3{fill:#163787;}
	.st4{fill:#FFFFFF;}
	.st5{fill:#FDFEFF;}
	.st6{fill:#283471;}
	.st7{fill:#FEB18D;}
	.st8{fill:#F47458;}
	.st9{fill:#B0CBEC;}
	.st10{opacity:0.3;fill:#FFFFFF;enable-background:new    ;}
	.st11{opacity:0.4;fill:#FFFFFF;enable-background:new    ;}
	.st12{fill:#1A2E35;}
	.st13{fill:#4285F4;}
	.st14{fill:#EB4335;}
	.st15{fill:#34A853;}
	.st16{fill:#FBBC05;}
	.st17{opacity:0.2;}
	.st18{fill:#3E5FA5;}
	.st19{fill:#E5F1F6;}
	.st20{fill:#EF5B73;}
	.st21{fill:#EDA127;}
	.st22{opacity:0.3;}
	.st23{fill:#07A0E4;}
	.st24{opacity:0.2;fill:#FFFFFF;enable-background:new    ;}
	.st25{opacity:0.5;}
</style>
<g id="Layer_2">
	<g>
		<defs>
			<rect id="SVGID_1_" width="800" height="500"/>
		</defs>
		<clipPath id="SVGID_00000168830631817543538080000000482399150173976708_">
			<use xlink:href="#SVGID_1_"  style="overflow:visible;"/>
		</clipPath>
		
			<g id="Layer_2_00000064339816070558718070000004075006429443890569_" style="clip-path:url(#SVGID_00000168830631817543538080000000482399150173976708_);">
			<g>
				<g>
					<g>
						<path class="st1" d="M495.5,553.9c0,0,72.5-3.9,64.2-64.7c-8.2-60.8-142.4-44.1-139,13.9C423.7,557.8,495.5,553.9,495.5,553.9
							z"/>
					</g>
					<path class="st1" d="M713.5,316.1c0,0-43.7,80.3-98.7,102.5c-66.3,26.8-108.2-21.6-224.4,45.3S144.1,580.5,50.4,469
						s-70.6-291.8,27.3-355.9s176.9,4.8,263.2-31.9S444.8-38.2,563.4-44S831.2,120,713.5,316.1z"/>
				</g>
			</g>
		</g>
	</g>
</g>
<g id="Layer_1">
	<g>
		<g>
			<g>
				<path class="st2" d="M264.9,429.3H30l0-310.9l234.9,0V429.3z M31,428.3h232.9V119.3l-232.9,0L31,428.3z"/>
			</g>
			<g>
				<polygon class="st2" points="40.5,128.8 40.5,418.8 40.5,418.8 254.4,418.8 254.4,128.8 40.5,128.8 				"/>
			</g>
			<g>
				<rect x="101.1" y="71.2" class="st3" width="92.8" height="101.8"/>
			</g>
			<g>
				<path class="st4" d="M134.8,148.9c-4-1.1-7.1-2.6-9.5-4.5l4.2-9.3c2.3,1.7,5,3,8.2,4.1c3.2,1,6.3,1.5,9.5,1.5
					c3.5,0,6.1-0.5,7.8-1.6c1.7-1,2.5-2.4,2.5-4.2c0-1.3-0.5-2.3-1.5-3.2c-1-0.8-2.3-1.5-3.8-2c-1.6-0.5-3.7-1.1-6.3-1.7
					c-4.1-1-7.4-1.9-10-2.9c-2.6-1-4.8-2.5-6.7-4.7c-1.9-2.1-2.8-5-2.8-8.6c0-3.1,0.8-5.9,2.5-8.5c1.7-2.5,4.2-4.5,7.6-6
					c3.4-1.5,7.5-2.2,12.4-2.2c3.4,0,6.8,0.4,10,1.2c3.3,0.8,6.1,2,8.6,3.5l-3.8,9.4c-5-2.8-9.9-4.2-14.9-4.2c-3.5,0-6,0.6-7.7,1.7
					c-1.7,1.1-2.5,2.6-2.5,4.4s1,3.2,2.9,4.1c1.9,0.9,4.8,1.8,8.8,2.6c4.1,1,7.4,1.9,10,2.9c2.6,1,4.8,2.5,6.7,4.6
					c1.9,2.1,2.8,4.9,2.8,8.5c0,3.1-0.9,5.9-2.6,8.4c-1.7,2.5-4.3,4.5-7.7,6c-3.4,1.5-7.6,2.2-12.5,2.2
					C142.9,150.6,138.8,150,134.8,148.9z"/>
			</g>
		</g>
		<g>
			<g>
				<path class="st5" d="M123.6,248.6c-0.9,0-3.4,0.9-7.3,8.2c-4.8,9.4-11.9,37.7-11.9,37.7l21,8l2.7-5.9l4.6-45.5
					C132.7,251.1,124,248.6,123.6,248.6z"/>
			</g>
			<g>
				<path class="st5" d="M128,346c0.7-6.9,1.2-14.8,0.1-18.6c-9.6-34-4.6-78.8-4.6-78.8c6.9-2.3,21.9-4.1,27.9-4.1
					c6.6,0,15.3,0.7,21.9,1.6c13.5,2.5,13.9,2.5,13.9,2.5s-0.2,32.7-3,42c-1.9,6.6,1.2,37.9,3.2,55.4c0.3,2.8,0.6,5.3,0.8,7.2h-61.2
					C127.4,351.1,127.7,348.6,128,346z"/>
			</g>
			<g>
				<g>
					<path class="st6" d="M137.5,189.8c1.8-0.7,3.4-1.4,5.3-2.1c1.8-0.9,4.3-2.1,5.9-2.3c3.2-0.5,8.9-0.2,12.1,3.2
						c3.9,4.3,10.7,0.7,9.4,23.5c-1.6,25.6-15.5,22.8-15.8,22.4c-0.2-0.5-12.3-16.4-12.3-16.4s-4.1,9.4-4.1,9.1
						C137.8,226.9,116.3,197.2,137.5,189.8z"/>
				</g>
				<g>
					<path class="st7" d="M148,236.2l-1.1,9.1c0,0-2.7,13.2,0.7,15.8c3.4,2.5,14.6-16.2,14.6-16.2l-1.1-23.3L148,236.2z"/>
				</g>
				<g>
					<path class="st8" d="M161.5,229.4c-3,8-9.6,12.8-14.6,14.6l0.9-7.8l13-14.4L161.5,229.4z"/>
				</g>
				<g>
					<path class="st7" d="M148.7,196.7c-7.3-1.1-13.9,4.8-13.7,12.3c0,3.2,0.2,7.3,0.9,11.6c1.6,10.5,8.7,19.9,13.2,19
						c4.6-0.9,16.4-10.1,14.4-24.9C162.4,205.6,156.5,197.8,148.7,196.7z"/>
				</g>
				<g>
					<path class="st7" d="M160.4,216.6c0.5,2.3,2.3,3.9,4.1,3.7c1.8-0.2,3-2.5,2.7-4.8c-0.5-2.3-2.3-3.9-4.1-3.7
						C161.3,212,160.1,214.3,160.4,216.6z"/>
				</g>
				<g>
					<path class="st6" d="M163.1,211.8c0,0-5.7,1.4-7.8-2.3c-2.1-3.7-9.6-11.6-19-8.5c-9.6,3.4,8.5-8,9.1-8s9.8,0,9.8,0
						s7.1,5.9,7.3,6.6c0.2,0.7,2.3,7.8,2.3,7.8L163.1,211.8z"/>
				</g>
			</g>
			<g>
				<g>
					<path class="st9" d="M73.6,294.7h59.2c1.6,0,3,0.9,3.7,2.5l18.3,45.5h32.4c0.9,0,1.6,0.7,1.6,1.6l0,0c0,0.9-0.7,1.6-1.6,1.6
						H94.6c-2.5,0-4.8-1.6-5.9-3.9l-18.3-41.8C69,297.7,70.8,294.7,73.6,294.7z"/>
				</g>
				<g>
					<path class="st4" d="M105.3,321.2c0.5,2.1,2.1,3.4,3.9,3c1.8-0.5,2.7-2.3,2.5-4.3c-0.5-2.1-2.1-3.4-3.9-3
						C106.2,317.1,105.1,319.1,105.3,321.2z"/>
				</g>
			</g>
			<g>
				<path class="st8" d="M148,278.4c-0.4-0.8,0-1.9,0.9-2.1c0.6-0.1,1.2,0.2,1.7,0.6c1.1,0.7,2.2,1.5,3.3,2.2
					c0.6,0.4,1.2,0.8,1.7,1.4c0.3,0.3,0.5,0.7,0.7,1.1c0.1,0.2,0.2,0.5,0,0.8c-0.1,0.2-0.3,0.2-0.4,0.3c-0.8,0.3-1.8,0.2-2.6-0.1
					c-0.8-0.3-1.6-0.8-2.4-1.2C149.7,280.6,148.7,279.7,148,278.4z"/>
				<g>
					<g>
						<path class="st6" d="M136.5,261.2c0.8,2.9,1.9,5.8,3,8.6c0.6,1.4,8.9,20.4,9.5,21.8l0.9,2.1c0.3,0.8,1,1.4,1.9,1.7
							c1,0.3,2.1-0.1,2.5-0.9c0.4-0.8,0.4-1.7,0-2.4l-1-2.1c-0.6-1.4-9.1-20.3-9.7-21.7c-1.4-2.7-2.2-5.7-3.9-8.3
							c-0.4-0.6-1.8-0.5-2.5-0.2C136.6,260.1,136.4,260.7,136.5,261.2L136.5,261.2z"/>
					</g>
					<g>
						<path class="st10" d="M112,247c2.9,8.3,10.8,13.9,19.6,13.8c2.2,0,4.4-0.4,6.5-1.1c10.7-3.7,16.4-15.4,12.7-26.1
							c-3.7-10.7-15.4-16.4-26.1-12.7C114,224.5,108.3,236.2,112,247L112,247z"/>
						<path class="st11" d="M116,227l35,17c0.1-0.3,0.1-0.6,0.2-0.9c0.3-1.9,0.4-3.9,0.2-5.9l0,0l-30.2-14.7
							C119.2,223.8,117.4,225.2,116,227z"/>
						<path class="st11" d="M111.5,239l32.9,16c2.3-2,4.2-4.5,5.4-7.3l-35.9-17.5C112.4,232.9,111.6,235.9,111.5,239z"/>
						<path class="st6" d="M123.9,217.9c-12,4.2-18.4,17.3-14.2,29.3c4.2,12,17.2,18.3,29.2,14.2c12-4.1,18.4-17.2,14.3-29.2
							C149.1,220.2,136,213.8,123.9,217.9C123.9,217.9,123.9,217.9,123.9,217.9z M138,258.7C138,258.7,138,258.7,138,258.7
							c-10.5,3.6-21.9-2-25.5-12.4c-3.6-10.4,2-21.8,12.4-25.4c10.5-3.6,21.9,1.9,25.5,12.4C154,243.7,148.5,255.1,138,258.7
							L138,258.7z"/>
					</g>
				</g>
				<path class="st7" d="M188.2,329.8c-4-3-5.7-4.1-16.7-17.3c-1.8-2.5-6-8.8-7.6-10.5c-1.2-1.5-0.7-2.5-2-3.8l-5.5-2.1
					c-0.9-0.4-2.2-1.6-3-2.5c-1-1.3-1.4-3.9-3.5-4.5c-0.4-0.1-0.9-0.2-1.3-0.3c0,0,0,0-0.1,0c-0.8-0.2-1.7-0.2-2.6-0.2h-0.1
					c-0.2,0-0.4,0-0.5,0c-0.2,0-0.5,0-0.7,0c-0.1-0.2-0.3-0.4-0.4-0.6c-0.1-0.1-0.2-0.2-0.2-0.4c-0.1-0.2,0-0.5,0.1-0.7
					c0.1-0.2-0.3-0.4-0.5-0.5c-0.3-0.1-0.5-0.2-0.4-0.4c0.5-0.1-0.5-0.3,0-0.4c0,0-0.2-0.1-0.2-0.2c0.7-0.1-0.3-0.2,0.2-0.3
					c0.1,0,0.3,0,0.5,0c0.4,0,0.9,0,1.4-0.1c0.1,0,0.2,0,0.3,0c0.4,0,0.6,0,0.7,0h0c-0.2,0-0.4,0-0.6,0h-0.4c-0.4,0-0.9,0-1.3,0
					c-0.7,0-1.3,0-2,0c-0.3,0-0.6,0-0.9,0c0-0.2,0-0.3,0-0.5c0-0.1,0-0.3-0.1-0.4c0.2-0.9,0.7-2,1.6-2.2c0,0,0.1,0,0.1,0
					c0.2,0,0.3,0,0.4,0c0.2,0,0.5,0,0.7-0.1c1.7-0.1,3.5-0.3,4.8-0.5L145,281c0,0-2.2,0.1-4.2,0c-1.9-0.1-3.8-0.4-3.6-1
					c0.3-1.5,5.6-1.7,7.2-2c1.3-0.2,12.6,2.5,13,2.8c1.1,0.5,2.6,1.9,4.1,3.3c1.5,1.4,6.5,5.3,8,6.7c3.5,2.9,2.3,2.5,11.6,10.6
					c-3.4-17.8,1-49.8,7-47.5C201.7,259.1,201,339,188.2,329.8z"/>
				<path class="st7" d="M149.1,281.5c-1.7,0.5-3.6-0.1-5.3,0.5c0,0,0,0,0,0c-0.1,0-0.2,0.1-0.2,0.1c-0.1,0.1-0.1,0.2-0.1,0.3
					c-0.2,0.7,0,1.5,0,2.2c0,0.2,0,0.3,0,0.5v0.1c0,0.4,0,0.8-0.1,1.2c0,0.4-0.1,0.7-0.1,1.1c-0.1,0.3-0.1,0.6-0.2,0.9
					c-0.2,0.5-0.5,1-0.9,1.2c-0.7,0.3-1.6-0.1-1.8-0.8c-0.2-0.5,0-1.1,0.1-1.7c0.2-0.7,0.2-1.4,0.2-2.2c0-0.2,0-0.3,0-0.5
					c0-0.1,0-0.3-0.1-0.4c-0.1-0.7-0.2-1.4-0.1-2c0-0.4,0.2-0.7,0.3-1.1c0.2-0.4,0.6-0.7,1-0.9c0.3-0.1,0.5-0.1,0.8-0.1
					c0.6,0,1.2-0.1,1.9-0.1c0.9-0.1,1.6,0.1,2.5,0.4c0.4,0.1,0.9,0.2,1.3,0.5C148.3,280.7,149.1,281.5,149.1,281.5z"/>
				<path class="st7" d="M148.5,288.7c0,0.4,0,0.7,0,1.1c0,0.6,0,1.3-0.3,1.8c-0.2,0.3-0.6,0.6-1,0.7c-0.4,0.1-0.8-0.1-1.1-0.4
					c-0.2-0.3-0.2-0.6-0.3-0.9c-0.1-0.4-0.1-0.8-0.2-1.1c-0.2-0.6-0.4-1.3-0.7-1.8c-0.1-0.2-0.2-0.4-0.4-0.5
					c-0.1-0.1-0.2-0.2-0.2-0.4c-0.1-0.2,0-0.4,0.1-0.6c0.1-0.4,0.2-0.9,0.5-1.2c0.3-0.3,0.6-0.5,1.2-0.2l0,0
					c0.9,0.4,1.2,1.7,1.8,2.4c0.1,0.1,0.2,0.2,0.3,0.3c0.1,0.1,0.1,0.3,0.2,0.4C148.5,288.3,148.5,288.5,148.5,288.7z"/>
				<path class="st7" d="M145.8,289.4c-0.2,0.5-0.5,1.1-1,1.3c-0.6,0.3-1.4-0.1-1.6-0.8c-0.1-0.3,0-0.6-0.1-0.8
					c-0.1-0.7-0.5-1.3-0.9-1.9c-0.5-0.8-0.9-1.7-0.9-2.6c0-0.1,0-0.3,0-0.4c0-0.8,0.5-2.2,1.5-2.4c0,0,0.1,0,0.1,0
					c0.6,0,1.7,0.7,2.2,1c0.5,0.3,0.8,0.9,1,1.4c0,0.1,0.1,0.3,0.1,0.4c0,0.1-1.5,0.1-1.5,0.1C144.9,285.6,146,288.8,145.8,289.4z"
					/>
			</g>
			<g>
				<path class="st5" d="M199,304.5c1.1-22.8,0.9-50.7-11.4-55.5c-4.8-1.8-9.9,2.7-8.5,49.3C185.6,298.8,191.9,305.9,199,304.5z"/>
			</g>
		</g>
		<g>
			<rect x="63.8" y="346" class="st6" width="170.2" height="7.2"/>
		</g>
		<polygon class="st12" points="285.4,266.8 266.6,258.9 269.3,265.3 211.8,265.3 211.8,268.3 269.3,268.3 266.6,274.7 		"/>
		<g>
			<path class="st4" d="M110.3,385.3c-1-0.3-1.7-0.6-2.3-1.1l1-2.3c0.6,0.4,1.2,0.7,2,1c0.8,0.2,1.5,0.4,2.3,0.4
				c0.9,0,1.5-0.1,1.9-0.4s0.6-0.6,0.6-1c0-0.3-0.1-0.6-0.4-0.8c-0.2-0.2-0.6-0.4-0.9-0.5c-0.4-0.1-0.9-0.3-1.5-0.4
				c-1-0.2-1.8-0.5-2.4-0.7c-0.6-0.2-1.2-0.6-1.6-1.1c-0.5-0.5-0.7-1.2-0.7-2.1c0-0.8,0.2-1.4,0.6-2.1s1-1.1,1.9-1.5
				c0.8-0.4,1.8-0.5,3-0.5c0.8,0,1.6,0.1,2.4,0.3c0.8,0.2,1.5,0.5,2.1,0.9l-0.9,2.3c-1.2-0.7-2.4-1-3.6-1c-0.8,0-1.5,0.1-1.9,0.4
				s-0.6,0.6-0.6,1.1s0.2,0.8,0.7,1c0.5,0.2,1.2,0.4,2.1,0.6c1,0.2,1.8,0.5,2.4,0.7s1.2,0.6,1.6,1.1s0.7,1.2,0.7,2.1
				c0,0.7-0.2,1.4-0.6,2c-0.4,0.6-1,1.1-1.9,1.5c-0.8,0.4-1.8,0.5-3,0.5C112.2,385.7,111.2,385.5,110.3,385.3z"/>
			<path class="st4" d="M131,383v2.4h-10.1v-13h9.9v2.4h-6.9v2.8h6.1v2.3h-6.1v3H131z"/>
			<path class="st4" d="M142,382.7h-6.1l-1.2,2.8h-3.1l5.8-13h3l5.8,13h-3.2L142,382.7z M141,380.4l-2.1-5l-2.1,5H141z"/>
			<path class="st4" d="M156,385.5l-2.5-3.6h-0.1h-2.6v3.6h-3v-13h5.6c1.2,0,2.2,0.2,3,0.6c0.9,0.4,1.5,0.9,2,1.6
				c0.5,0.7,0.7,1.5,0.7,2.5c0,1-0.2,1.8-0.7,2.5c-0.5,0.7-1.1,1.2-2,1.6l2.9,4.2H156z M155.2,375.5c-0.5-0.4-1.2-0.6-2.1-0.6h-2.5
				v4.5h2.5c0.9,0,1.6-0.2,2.1-0.6c0.5-0.4,0.7-1,0.7-1.7C155.9,376.4,155.7,375.9,155.2,375.5z"/>
			<path class="st4" d="M164,384.8c-1.1-0.6-1.9-1.4-2.5-2.4c-0.6-1-0.9-2.2-0.9-3.5c0-1.3,0.3-2.5,0.9-3.5c0.6-1,1.5-1.8,2.5-2.4
				c1.1-0.6,2.3-0.9,3.6-0.9c1.1,0,2.2,0.2,3.1,0.6s1.7,1,2.3,1.7l-1.9,1.8c-0.9-1-2-1.5-3.3-1.5c-0.8,0-1.5,0.2-2.2,0.5
				c-0.6,0.4-1.1,0.8-1.5,1.5c-0.4,0.6-0.5,1.4-0.5,2.2s0.2,1.5,0.5,2.2c0.4,0.6,0.8,1.1,1.5,1.5c0.6,0.4,1.4,0.5,2.2,0.5
				c1.3,0,2.4-0.5,3.3-1.5l1.9,1.8c-0.6,0.8-1.4,1.3-2.3,1.7c-0.9,0.4-1.9,0.6-3.1,0.6C166.3,385.7,165.1,385.4,164,384.8z"/>
			<path class="st4" d="M187,372.4v13h-3v-5.3H178v5.3h-3v-13h3v5.1h5.9v-5.1H187z"/>
		</g>
	</g>
	<g>
		<g>
			<g>
				<path class="st2" d="M517.5,429.3H282.5l0-310.9l234.9,0V429.3z M283.5,428.3h232.9V119.3l-232.9,0L283.5,428.3z"/>
			</g>
			<g>
				<polygon class="st2" points="293,128.8 293,418.8 293,418.8 507,418.8 507,128.8 293,128.8 				"/>
			</g>
			<g>
				<rect x="353.6" y="71.2" class="st3" width="92.8" height="101.8"/>
			</g>
			<g>
				<path class="st4" d="M420.5,139.7v10H379V96.1h40.5v10h-28.2v11.6h24.9v9.7h-24.9v12.4H420.5z"/>
			</g>
		</g>
		<g>
			<circle class="st5" cx="403.2" cy="272.7" r="70.7"/>
		</g>
		<g>
			<path class="st4" d="M373.5,383v2.4h-10.1v-13h9.9v2.4h-6.9v2.8h6.1v2.3h-6.1v3H373.5z"/>
			<path class="st4" d="M387.9,372.4v13h-2.5l-6.5-7.9v7.9h-3v-13h2.5l6.5,7.9v-7.9H387.9z"/>
			<path class="st4" d="M399.8,378.7h2.8v5.3c-0.7,0.5-1.5,0.9-2.5,1.2c-0.9,0.3-1.9,0.4-2.8,0.4c-1.4,0-2.6-0.3-3.7-0.9
				c-1.1-0.6-1.9-1.4-2.5-2.4c-0.6-1-0.9-2.2-0.9-3.5c0-1.3,0.3-2.5,0.9-3.5c0.6-1,1.5-1.8,2.6-2.4c1.1-0.6,2.3-0.9,3.7-0.9
				c1.1,0,2.2,0.2,3.1,0.6c0.9,0.4,1.7,0.9,2.3,1.7l-1.9,1.8c-0.9-1-2.1-1.5-3.4-1.5c-0.8,0-1.6,0.2-2.2,0.5
				c-0.6,0.3-1.1,0.8-1.5,1.5c-0.4,0.6-0.5,1.4-0.5,2.2c0,0.8,0.2,1.5,0.5,2.2c0.4,0.6,0.9,1.1,1.5,1.5c0.6,0.4,1.4,0.5,2.2,0.5
				c0.9,0,1.7-0.2,2.3-0.6V378.7z"/>
			<path class="st4" d="M405.3,372.4h3v13h-3V372.4z"/>
			<path class="st4" d="M423.4,372.4v13h-2.5l-6.5-7.9v7.9h-3v-13h2.5l6.5,7.9v-7.9H423.4z"/>
			<path class="st4" d="M436.6,383v2.4h-10.1v-13h9.9v2.4h-6.9v2.8h6.1v2.3h-6.1v3H436.6z"/>
		</g>
		<g>
			<path class="st13" d="M459.8,272.7c0,16.6-7.1,31.5-18.5,41.8c-10.1,9.2-23.4,14.8-38.1,14.8c-20.5,0-38.4-10.8-48.3-27.1
				c-0.7-1.1-1.4-2.3-2-3.5c-4-7.8-6.3-16.6-6.3-26c0-9.7,2.4-18.8,6.7-26.7c1.5-2.8,3.2-5.4,5.1-7.8c10.3-13.4,26.6-22,44.8-22
				c14.7,0,28.2,5.6,38.2,14.9l-15.7,15.1c-6.1-5.2-14-8.3-22.5-8.3c-12.4,0-23.3,6.5-29.5,16.3c-1,1.6-1.9,3.3-2.6,5
				c-1.8,4.2-2.7,8.7-2.7,13.5c0,4.4,0.8,8.5,2.3,12.4c0.6,1.5,1.2,2.9,2,4.3c5.9,10.8,17.4,18.2,30.6,18.2c7.9,0,15.2-2.6,21.1-7.1
				c6-4.5,10.4-11,12.5-18.4h-32.6v-20.5h54.5c0.1,0.3,0.1,0.7,0.2,1.1C459.4,265.9,459.8,269.2,459.8,272.7z"/>
			<path class="st14" d="M441.4,230.9l-15.7,15.1c-6.1-5.2-14-8.3-22.5-8.3c-12.4,0-23.3,6.5-29.5,16.3c-1,1.6-1.9,3.3-2.6,5
				c-4.9-3.6-12.9-9.6-17.8-13.2c1.5-2.8,3.2-5.4,5.1-7.8c10.3-13.4,26.6-22,44.8-22C417.9,216.1,431.3,221.7,441.4,230.9z"/>
			<path class="st15" d="M441.3,314.5c-10.1,9.2-23.4,14.8-38.1,14.8c-20.5,0-38.4-10.8-48.3-27.1c-0.7-1.1-1.4-2.3-2-3.5l17.7-13.6
				c0.6,1.5,1.2,2.9,2,4.3c5.9,10.8,17.4,18.2,30.6,18.2c7.9,0,15.2-2.6,21.1-7.1L441.3,314.5z"/>
			<path class="st16" d="M370.6,285.1c0.6,1.5,1.2,2.9,2,4.3l-16.5,13.3l-1.2-0.5c-0.7-1.1-1.4-2.3-2-3.5c-4-7.8-6.3-16.6-6.3-26
				c0-9.7,2.4-18.8,6.7-26.7c1.5-2.8,3.2-5.4,5.1-7.8l15.3,16c-1,1.6-1.9,3.3-2.6,5c-1.8,4.2-2.7,8.7-2.7,13.5
				C368.3,277,369.1,281.2,370.6,285.1z"/>
		</g>
		<polygon class="st12" points="543,266.8 524.3,258.9 527,265.3 469.5,265.3 469.5,268.3 527,268.3 524.3,274.7 		"/>
	</g>
	<g>
		<g>
			<g>
				<path class="st2" d="M770,429.3H535.1l0-310.9l234.9,0V429.3z M536.1,428.3H769V119.3l-232.9,0L536.1,428.3z"/>
			</g>
			<g>
				<polygon class="st2" points="545.6,128.8 545.6,418.8 545.6,418.8 759.5,418.8 759.5,128.8 545.6,128.8 				"/>
			</g>
			<g>
				<rect x="606.1" y="71.2" class="st3" width="92.8" height="101.8"/>
			</g>
			<g>
				<path class="st4" d="M639.5,147c-4.5-2.4-8-5.7-10.5-9.9c-2.5-4.2-3.8-8.9-3.8-14.2c0-5.3,1.3-10,3.8-14.2
					c2.5-4.2,6-7.5,10.5-9.9c4.5-2.4,9.5-3.6,15.1-3.6c5.6,0,10.6,1.2,15,3.6c4.4,2.4,7.9,5.7,10.5,9.9c2.6,4.2,3.8,9,3.8,14.2
					c0,5.3-1.3,10-3.8,14.2c-2.6,4.2-6.1,7.5-10.5,9.9c-4.4,2.4-9.4,3.6-15,3.6C648.9,150.6,643.9,149.4,639.5,147z M663.1,137.9
					c2.6-1.5,4.6-3.5,6-6.1c1.5-2.6,2.2-5.6,2.2-8.9c0-3.3-0.7-6.3-2.2-8.9c-1.5-2.6-3.5-4.6-6-6.1c-2.6-1.5-5.4-2.2-8.6-2.2
					c-3.2,0-6,0.7-8.6,2.2c-2.6,1.5-4.6,3.5-6,6.1s-2.2,5.6-2.2,8.9c0,3.3,0.7,6.3,2.2,8.9c1.5,2.6,3.5,4.6,6,6.1s5.4,2.2,8.6,2.2
					C657.7,140,660.5,139.3,663.1,137.9z"/>
			</g>
		</g>
		<g>
			<g>
				<g>
					<path class="st4" d="M739.2,221v104.4c0,2-1.4,3.6-3.2,3.6H569c-1.8,0-3.2-1.6-3.2-3.6V221c0-2,1.4-3.6,3.2-3.6h167
						C737.8,217.4,739.2,219,739.2,221z"/>
				</g>
				<g class="st17">
					<path class="st18" d="M739.2,235.2v14.6H565.8v-14.6c0-1.8,1.4-3.3,3.2-3.3h167C737.8,231.9,739.2,233.4,739.2,235.2z"/>
				</g>
				<g>
					<path class="st3" d="M739.2,220.5v14.2H565.8v-14.2c0-1.8,1.4-3.2,3.2-3.2h167C737.8,217.4,739.2,218.8,739.2,220.5z"/>
				</g>
				<g>
					<path class="st19" d="M589.5,225.8L589.5,225.8c0-1.5,1.2-2.7,2.7-2.7h137.4c1.5,0,2.7,1.2,2.7,2.7l0,0c0,1.5-1.2,2.7-2.7,2.7
						H592.2C590.7,228.6,589.5,227.4,589.5,225.8z"/>
				</g>
				<g>
					<circle class="st19" cx="572.9" cy="225.7" r="1.8"/>
				</g>
				<g>
					<circle class="st19" cx="578" cy="225.7" r="1.8"/>
				</g>
				<g>
					<circle class="st19" cx="583.1" cy="225.7" r="1.8"/>
				</g>
				<g>
					<path class="st13" d="M588.7,242.2c0,1.3-0.6,2.6-1.5,3.4c-0.8,0.7-1.9,1.2-3.1,1.2c-1.7,0-3.1-0.9-3.9-2.2
						c-0.1-0.1-0.1-0.2-0.2-0.3c-0.3-0.6-0.5-1.3-0.5-2.1c0-0.8,0.2-1.5,0.5-2.2c0.1-0.2,0.3-0.4,0.4-0.6c0.8-1.1,2.2-1.8,3.6-1.8
						c1.2,0,2.3,0.5,3.1,1.2l-1.3,1.2c-0.5-0.4-1.1-0.7-1.8-0.7c-1,0-1.9,0.5-2.4,1.3c-0.1,0.1-0.2,0.3-0.2,0.4
						c-0.1,0.3-0.2,0.7-0.2,1.1c0,0.4,0.1,0.7,0.2,1c0,0.1,0.1,0.2,0.2,0.3c0.5,0.9,1.4,1.5,2.5,1.5c0.6,0,1.2-0.2,1.7-0.6
						c0.5-0.4,0.8-0.9,1-1.5h-2.6v-1.7h4.4c0,0,0,0.1,0,0.1C588.6,241.6,588.7,241.9,588.7,242.2z"/>
					<path class="st14" d="M587.2,238.8l-1.3,1.2c-0.5-0.4-1.1-0.7-1.8-0.7c-1,0-1.9,0.5-2.4,1.3c-0.1,0.1-0.2,0.3-0.2,0.4
						c-0.4-0.3-1-0.8-1.4-1.1c0.1-0.2,0.3-0.4,0.4-0.6c0.8-1.1,2.2-1.8,3.6-1.8C585.3,237.6,586.3,238,587.2,238.8z"/>
					<path class="st15" d="M587.2,245.6c-0.8,0.7-1.9,1.2-3.1,1.2c-1.7,0-3.1-0.9-3.9-2.2c-0.1-0.1-0.1-0.2-0.2-0.3l1.4-1.1
						c0,0.1,0.1,0.2,0.2,0.3c0.5,0.9,1.4,1.5,2.5,1.5c0.6,0,1.2-0.2,1.7-0.6L587.2,245.6z"/>
					<path class="st16" d="M581.4,243.2c0,0.1,0.1,0.2,0.2,0.3l-1.3,1.1l-0.1,0c-0.1-0.1-0.1-0.2-0.2-0.3c-0.3-0.6-0.5-1.3-0.5-2.1
						c0-0.8,0.2-1.5,0.5-2.2c0.1-0.2,0.3-0.4,0.4-0.6l1.2,1.3c-0.1,0.1-0.2,0.3-0.2,0.4c-0.1,0.3-0.2,0.7-0.2,1.1
						C581.2,242.5,581.3,242.9,581.4,243.2z"/>
				</g>
				<g>
					<g>
						<g>
							<path class="st20" d="M580.2,255.7h32.7c0.4,0,0.7,0.4,0.7,0.9V281c0,0.5-0.3,0.9-0.7,0.9h-32.7c-0.4,0-0.7-0.4-0.7-0.9
								v-24.4C579.5,256.1,579.8,255.7,580.2,255.7z"/>
						</g>
						<circle class="st21" cx="593" cy="266.9" r="7.5"/>
						<circle class="st21" cx="599.3" cy="270.8" r="7.5"/>
					</g>
					<g>
						<g>
							<path class="st18" d="M618.9,256.6h85.7c1.1,0,1.9,0.9,1.9,1.9v0c0,1.1-0.9,1.9-1.9,1.9h-85.7c-1.1,0-1.9-0.9-1.9-1.9v0
								C617,257.5,617.9,256.6,618.9,256.6z"/>
						</g>
						<g>
							<g>
								<path class="st18" d="M680.3,264.8h26c0.2,0,0.3,0.3,0.3,0.7l0,0c0,0.4-0.1,0.7-0.3,0.7h-26c-0.2,0-0.3-0.3-0.3-0.7l0,0
									C680,265.1,680.1,264.8,680.3,264.8z"/>
							</g>
							<g>
								<path class="st18" d="M649.8,264.8h26c0.2,0,0.3,0.3,0.3,0.7l0,0c0,0.4-0.1,0.7-0.3,0.7h-26c-0.2,0-0.3-0.3-0.3-0.7l0,0
									C649.5,265.1,649.6,264.8,649.8,264.8z"/>
							</g>
						</g>
						<g class="st22">
							<g>
								<path class="st18" d="M618,271.4h87.6c0.5,0,1,0.4,1,0.8l0,0c0,0.5-0.4,0.8-1,0.8H618c-0.5,0-1-0.4-1-0.8l0,0
									C617,271.8,617.5,271.4,618,271.4z"/>
							</g>
							<g>
								<path class="st18" d="M617.8,275.9h70.3c0.4,0,0.8,0.4,0.8,0.8l0,0c0,0.5-0.3,0.8-0.8,0.8h-70.3c-0.4,0-0.8-0.4-0.8-0.8l0,0
									C617,276.3,617.4,275.9,617.8,275.9z"/>
							</g>
							<g>
								<path class="st18" d="M617.7,280.2h62.7c0.4,0,0.7,0.4,0.7,0.8l0,0c0,0.5-0.3,0.8-0.7,0.8h-62.7c-0.4,0-0.7-0.4-0.7-0.8l0,0
									C617,280.6,617.3,280.2,617.7,280.2z"/>
							</g>
						</g>
						<g>
							<polygon class="st21" points="619.5,263 620.3,264.6 622,264.9 620.8,266.1 621.1,267.9 619.5,267 617.9,267.9 618.2,266.1 
								616.9,264.9 618.7,264.6 							"/>
							<polygon class="st21" points="625.6,263 626.4,264.6 628.2,264.9 626.9,266.1 627.2,267.9 625.6,267 624,267.9 624.3,266.1 
								623.1,264.9 624.8,264.6 							"/>
							<polygon class="st21" points="631.7,263 632.5,264.6 634.3,264.9 633,266.1 633.3,267.9 631.7,267 630.2,267.9 630.5,266.1 
								629.2,264.9 631,264.6 							"/>
							<polygon class="st21" points="637.9,263 638.7,264.6 640.4,264.9 639.2,266.1 639.5,267.9 637.9,267 636.3,267.9 
								636.6,266.1 635.3,264.9 637.1,264.6 							"/>
							<polygon class="st21" points="644,263 644.8,264.6 646.6,264.9 645.3,266.1 645.6,267.9 644,267 642.4,267.9 642.7,266.1 
								641.5,264.9 643.2,264.6 							"/>
						</g>
					</g>
				</g>
				<g>
					<g>
						<g>
							<path class="st21" d="M580.2,292.7h32.7c0.4,0,0.7,0.4,0.7,0.9v24.4c0,0.5-0.3,0.9-0.7,0.9h-32.7c-0.4,0-0.7-0.4-0.7-0.9
								v-24.4C579.5,293.1,579.8,292.7,580.2,292.7z"/>
						</g>
						<circle class="st23" cx="593" cy="303.9" r="7.5"/>
						<circle class="st23" cx="599.3" cy="307.8" r="7.5"/>
					</g>
					<g>
						<g>
							<path class="st18" d="M618.9,293.6h85.7c1.1,0,1.9,0.9,1.9,1.9l0,0c0,1.1-0.9,1.9-1.9,1.9h-85.7c-1.1,0-1.9-0.9-1.9-1.9l0,0
								C617,294.4,617.9,293.6,618.9,293.6z"/>
						</g>
						<g>
							<g>
								<path class="st18" d="M680.3,301.8h26c0.2,0,0.3,0.3,0.3,0.7l0,0c0,0.4-0.1,0.7-0.3,0.7h-26c-0.2,0-0.3-0.3-0.3-0.7l0,0
									C680,302.1,680.1,301.8,680.3,301.8z"/>
							</g>
							<g>
								<path class="st18" d="M649.8,301.8h26c0.2,0,0.3,0.3,0.3,0.7l0,0c0,0.4-0.1,0.7-0.3,0.7h-26c-0.2,0-0.3-0.3-0.3-0.7l0,0
									C649.5,302.1,649.6,301.8,649.8,301.8z"/>
							</g>
						</g>
						<g class="st22">
							<g>
								<path class="st18" d="M618,308.4h87.6c0.5,0,1,0.4,1,0.8l0,0c0,0.5-0.4,0.8-1,0.8H618c-0.5,0-1-0.4-1-0.8l0,0
									C617,308.8,617.5,308.4,618,308.4z"/>
							</g>
							<g>
								<path class="st18" d="M617.8,312.8h70.3c0.4,0,0.8,0.4,0.8,0.8l0,0c0,0.5-0.3,0.8-0.8,0.8h-70.3c-0.4,0-0.8-0.4-0.8-0.8l0,0
									C617,313.2,617.4,312.8,617.8,312.8z"/>
							</g>
							<g>
								<path class="st18" d="M617.7,317.2h62.7c0.4,0,0.7,0.4,0.7,0.8l0,0c0,0.5-0.3,0.8-0.7,0.8h-62.7c-0.4,0-0.7-0.4-0.7-0.8l0,0
									C617,317.6,617.3,317.2,617.7,317.2z"/>
							</g>
						</g>
						<g>
							<polygon class="st21" points="619.5,300 620.3,301.6 622,301.8 620.8,303.1 621.1,304.8 619.5,304 617.9,304.8 618.2,303.1 
								616.9,301.8 618.7,301.6 							"/>
							<polygon class="st21" points="625.6,300 626.4,301.6 628.2,301.8 626.9,303.1 627.2,304.8 625.6,304 624,304.8 624.3,303.1 
								623.1,301.8 624.8,301.6 							"/>
							<polygon class="st21" points="631.7,300 632.5,301.6 634.3,301.8 633,303.1 633.3,304.8 631.7,304 630.2,304.8 630.5,303.1 
								629.2,301.8 631,301.6 							"/>
							<polygon class="st21" points="637.9,300 638.7,301.6 640.4,301.8 639.2,303.1 639.5,304.8 637.9,304 636.3,304.8 
								636.6,303.1 635.3,301.8 637.1,301.6 							"/>
							<polygon class="st21" points="644,300 644.8,301.6 646.6,301.8 645.3,303.1 645.6,304.8 644,304 642.4,304.8 642.7,303.1 
								641.5,301.8 643.2,301.6 							"/>
						</g>
					</g>
				</g>
				<rect x="593.8" y="240" class="st4" width="102.9" height="4.5"/>
			</g>
			<g>
				<g>
					<path class="st6" d="M634.6,305c2.8,3.1,6,6,9.1,8.8c1.6,1.4,23.9,19.9,25.6,21.2l2.5,2c0.9,0.8,2.2,1.2,3.4,0.9
						c1.4-0.2,2.5-1.4,2.5-2.8c0-1.2-0.5-2.3-1.5-3l-2.5-2c-1.7-1.3-24.2-19.7-25.9-20.9c-3.5-2.5-6.4-5.7-10.1-7.8
						c-0.8-0.5-2.6,0.5-3.2,1.4C634,303.5,634,304.4,634.6,305L634.6,305z"/>
				</g>
				<g>
					<path class="st24" d="M595,302.7c8.9,8.6,22.2,10.6,33.2,4.9c2.8-1.4,5.3-3.3,7.4-5.5c11.1-11.4,10.8-29.6-0.6-40.7
						c-11.4-11.1-29.6-10.8-40.7,0.6C583.3,273.4,583.6,291.6,595,302.7L595,302.7z"/>
					<g class="st25">
						<path class="st11" d="M587.3,275.2l54.4-0.8c-0.1-0.4-0.2-0.8-0.3-1.2c-0.8-2.6-2-5.1-3.5-7.4l0,0l-47,0.7
							C589.3,269.1,588,272.1,587.3,275.2z"/>
						<path class="st11" d="M589.3,293l51.2-0.8c1.7-3.9,2.4-8.2,2.2-12.5l-55.9,0.8C586.6,284.8,587.5,289.1,589.3,293z"/>
					</g>
					<path class="st6" d="M591.5,258.9c-12.4,12.8-12.1,33.2,0.7,45.6c12.8,12.4,33.1,12.1,45.5-0.7c12.4-12.7,12.2-33.1-0.6-45.6
						C624.4,245.8,604,246.1,591.5,258.9C591.5,258.8,591.5,258.9,591.5,258.9z M634.8,300.9C634.8,300.9,634.8,300.9,634.8,300.9
						c-10.8,11.1-28.6,11.4-39.7,0.5c-11.1-10.8-11.3-28.5-0.5-39.6c10.8-11.1,28.6-11.4,39.7-0.6
						C645.4,272.1,645.6,289.8,634.8,300.9L634.8,300.9z"/>
				</g>
			</g>
		</g>
		<g>
			<path class="st4" d="M584.7,384.8c-1.1-0.6-1.9-1.4-2.6-2.4c-0.6-1-0.9-2.2-0.9-3.5c0-1.3,0.3-2.4,0.9-3.5c0.6-1,1.5-1.8,2.6-2.4
				s2.3-0.9,3.7-0.9s2.6,0.3,3.7,0.9s1.9,1.4,2.6,2.4c0.6,1,0.9,2.2,0.9,3.5c0,1.3-0.3,2.4-0.9,3.5c-0.6,1-1.5,1.8-2.6,2.4
				s-2.3,0.9-3.7,0.9S585.8,385.4,584.7,384.8z M590.4,382.6c0.6-0.4,1.1-0.8,1.5-1.5c0.4-0.6,0.5-1.4,0.5-2.2s-0.2-1.5-0.5-2.2
				c-0.4-0.6-0.8-1.1-1.5-1.5c-0.6-0.4-1.3-0.5-2.1-0.5s-1.5,0.2-2.1,0.5c-0.6,0.4-1.1,0.8-1.5,1.5c-0.4,0.6-0.5,1.4-0.5,2.2
				s0.2,1.5,0.5,2.2c0.4,0.6,0.8,1.1,1.5,1.5c0.6,0.4,1.3,0.5,2.1,0.5S589.8,382.9,590.4,382.6z"/>
			<path class="st4" d="M606.4,373c0.9,0.4,1.5,0.9,2,1.6c0.5,0.7,0.7,1.5,0.7,2.5c0,1-0.2,1.8-0.7,2.5s-1.1,1.3-2,1.6
				c-0.9,0.4-1.9,0.6-3,0.6h-2.6v3.6h-3v-13h5.6C604.6,372.4,605.6,372.6,606.4,373z M605.3,378.8c0.5-0.4,0.7-0.9,0.7-1.7
				c0-0.7-0.2-1.3-0.7-1.7c-0.5-0.4-1.2-0.6-2.1-0.6h-2.5v4.5h2.5C604.1,379.4,604.8,379.2,605.3,378.8z"/>
			<path class="st4" d="M613.6,374.9h-4.2v-2.5h11.4v2.5h-4.2v10.6h-3V374.9z"/>
			<path class="st4" d="M622.4,372.4h3v13h-3V372.4z"/>
			<path class="st4" d="M640.4,385.5l0-7.8l-3.8,6.4h-1.4l-3.8-6.3v7.7h-2.8v-13h2.5l4.9,8.1l4.8-8.1h2.5l0,13H640.4z"/>
			<path class="st4" d="M646.3,372.4h3v13h-3V372.4z"/>
			<path class="st4" d="M663,383v2.5h-11.4v-2l7.2-8.6h-7v-2.5h11v2l-7.1,8.6H663z"/>
			<path class="st4" d="M673.5,382.7h-6.1l-1.2,2.8h-3.1l5.8-13h3l5.8,13h-3.2L673.5,382.7z M672.6,380.4l-2.1-5l-2.1,5H672.6z"/>
			<path class="st4" d="M681.2,374.9h-4.2v-2.5h11.4v2.5h-4.2v10.6h-3V374.9z"/>
			<path class="st4" d="M690.1,372.4h3v13h-3V372.4z"/>
			<path class="st4" d="M698.8,384.8c-1.1-0.6-1.9-1.4-2.6-2.4c-0.6-1-0.9-2.2-0.9-3.5c0-1.3,0.3-2.4,0.9-3.5c0.6-1,1.5-1.8,2.6-2.4
				s2.3-0.9,3.7-0.9s2.6,0.3,3.7,0.9s1.9,1.4,2.6,2.4c0.6,1,0.9,2.2,0.9,3.5c0,1.3-0.3,2.4-0.9,3.5c-0.6,1-1.5,1.8-2.6,2.4
				s-2.3,0.9-3.7,0.9S699.9,385.4,698.8,384.8z M704.6,382.6c0.6-0.4,1.1-0.8,1.5-1.5c0.4-0.6,0.5-1.4,0.5-2.2s-0.2-1.5-0.5-2.2
				c-0.4-0.6-0.8-1.1-1.5-1.5c-0.6-0.4-1.3-0.5-2.1-0.5s-1.5,0.2-2.1,0.5c-0.6,0.4-1.1,0.8-1.5,1.5c-0.4,0.6-0.5,1.4-0.5,2.2
				s0.2,1.5,0.5,2.2c0.4,0.6,0.8,1.1,1.5,1.5c0.6,0.4,1.3,0.5,2.1,0.5S704,382.9,704.6,382.6z"/>
			<path class="st4" d="M723.9,372.4v13h-2.5l-6.5-7.9v7.9h-3v-13h2.5l6.5,7.9v-7.9H723.9z"/>
		</g>
	</g>
</g>
</svg>
